<svg id="Layer_1" data-name="Layer 1" xmlns="http://www.w3.org/2000/svg" viewBox="0 0 2179.27 569.83"><defs><style>.cls-1,.cls-2{fill:#fff;}.cls-1,.cls-2,.cls-3{stroke:#000;stroke-linejoin:round;}.cls-1{stroke-width:30px;}.cls-2{stroke-linecap:round;}.cls-2,.cls-3{stroke-width:20px;}</style></defs><title>logo</title><path class="cls-1" d="M497,228c0-98.86-80.14-139-179-139S139,129.14,139,228Z" transform="translate(-75.5 -74)"/><path class="cls-1" d="M139,501c0,98.86,80.14,89,179,89s179,9.86,179-89Z" transform="translate(-75.5 -74)"/><path class="cls-2" d="M550.5,447.32V447c0-18.33-14.86-19.19-33.18-19.19s-33.19.86-33.19,19.19l-.43.35c0,18.32-14.85,19.18-33.18,19.18s-33.18-.86-33.18-19.18V447c0-18.33-14.86-19.19-33.19-19.19S351,428.64,351,447v.35c0,18.32-14.86,19.18-33.18,19.18s-33.19-.86-33.19-19.18V447c0-18.33-14.85-19.19-33.18-19.19s-33.19.86-33.19,19.19v.35c0,18.32-14.85,19.18-33.18,19.18s-33.18-.86-33.18-19.18V447c0-18.33-14.86-19.19-33.19-19.19S85.5,428.64,85.5,447" transform="translate(-75.5 -74)"/><rect class="cls-3" x="63.5" y="267" width="358" height="57" rx="24.38" ry="24.38"/><path class="cls-2" d="M114,326.7s11.89-21,26.43-21H495.57c14.54,0,26.43,21,26.43,21" transform="translate(-75.5 -74)"/><line class="cls-2" x1="78.15" y1="193" x2="406.85" y2="193"/><path d="M192,180c7.72,0,7.73-12,0-12s-7.73,12,0,12Z" transform="translate(-75.5 -74)"/><path d="M221,160c7.72,0,7.73-12,0-12s-7.73,12,0,12Z" transform="translate(-75.5 -74)"/><path d="M248,139c7.72,0,7.73-12,0-12s-7.73,12,0,12Z" transform="translate(-75.5 -74)"/><path d="M307,137c7.72,0,7.73-12,0-12s-7.73,12,0,12Z" transform="translate(-75.5 -74)"/><path d="M284,153c7.72,0,7.73-12,0-12s-7.73,12,0,12Z" transform="translate(-75.5 -74)"/><path d="M251,164c7.72,0,7.73-12,0-12s-7.73,12,0,12Z" transform="translate(-75.5 -74)"/><path d="M288,140c7.72,0,7.73-12,0-12s-7.73,12,0,12Z" transform="translate(-75.5 -74)"/><path d="M363,171c7.72,0,7.73-12,0-12s-7.73,12,0,12Z" transform="translate(-75.5 -74)"/><path d="M407,148c7.72,0,7.73-12,0-12s-7.73,12,0,12Z" transform="translate(-75.5 -74)"/><path d="M344,139c7.72,0,7.73-12,0-12s-7.73,12,0,12Z" transform="translate(-75.5 -74)"/><path d="M337,155c7.72,0,7.73-12,0-12s-7.73,12,0,12Z" transform="translate(-75.5 -74)"/><path d="M382,146c7.72,0,7.73-12,0-12s-7.73,12,0,12Z" transform="translate(-75.5 -74)"/><path d="M394,178c7.72,0,7.73-12,0-12s-7.73,12,0,12Z" transform="translate(-75.5 -74)"/><path d="M432,167c7.72,0,7.73-12,0-12s-7.73,12,0,12Z" transform="translate(-75.5 -74)"/><path d="M454,186c7.72,0,7.73-12,0-12s-7.73,12,0,12Z" transform="translate(-75.5 -74)"/><path d="M411,163c7.72,0,7.73-12,0-12s-7.73,12,0,12Z" transform="translate(-75.5 -74)"/><path d="M245,182c7.72,0,7.73-12,0-12s-7.73,12,0,12Z" transform="translate(-75.5 -74)"/><path d="M327,182c7.72,0,7.73-12,0-12s-7.73,12,0,12Z" transform="translate(-75.5 -74)"/><path d="M302,168c7.72,0,7.73-12,0-12s-7.73,12,0,12Z" transform="translate(-75.5 -74)"/><path d="M692.75,198.33v-1.54a3.14,3.14,0,0,1,.56-1.81,16.31,16.31,0,0,0-4.6,6.41,23.61,23.61,0,0,0-1.81,9.48,26.41,26.41,0,0,0,2.78,12,30.42,30.42,0,0,0,7.53,9.62,34.06,34.06,0,0,0,11.43,6.27A46.44,46.44,0,0,0,723.42,241q36.51,0,40.14-33.18A171.74,171.74,0,0,0,765.1,190q.42-10.31.41-23.69V157.9l-.27-42.65q0-16.17-8.93-16.17a25.14,25.14,0,0,0-5,.56,40.6,40.6,0,0,1-7.81.83,13.37,13.37,0,0,1-9.2-3.48,11.57,11.57,0,0,1-3.9-9.06q0-13.11,16.45-13.11h2.23a7.48,7.48,0,0,1,2.23.28l13.94,2q3.9.57,8.08.84c2.79.19,5.48.28,8.09.28q3.35,0,8.08-.42c3.16-.28,6.32-.6,9.48-1l11.71-1.67a4.78,4.78,0,0,1,2.37-.42,18.53,18.53,0,0,0,2.65.14q16.15,0,16.17,13.11,0,12.54-13.11,12.54a44.75,44.75,0,0,1-8.08-.83,19.12,19.12,0,0,0-4.74-.56q-9.21,0-9.2,16.17v51q0,20.63-.7,34.15t-2.37,20.49A47.78,47.78,0,0,1,788.79,233a72.11,72.11,0,0,1-8.22,11.85,74.89,74.89,0,0,1-24.81,16.73A80.74,80.74,0,0,1,724,267.74q-29.84,0-48.51-15.33-19-15.89-19-40.7,0-18.4,12-31.23t30.11-12.82q13.65,0,22.16,7.11a22.72,22.72,0,0,1,8.5,18.26,19.8,19.8,0,0,1-1.53,7.8,21.5,21.5,0,0,1-4.18,6.42,20.86,20.86,0,0,1-6.14,4.46,16.89,16.89,0,0,1-7.38,1.67,18.47,18.47,0,0,1-12-4.32A13.33,13.33,0,0,1,692.75,198.33Z" transform="translate(-75.5 -74)"/><path d="M899.61,266.35q-29.83,0-47.68-20.35t-17.84-53.81q0-33.72,17.84-53.52Q869.78,118,900.44,118t48.79,20.07q17.57,19.8,17.56,53.25,0,34-18.12,54.08Q930.55,266.35,899.61,266.35ZM901,142.85q-16.72,0-26.07,12t-10.17,34.3v3.06q0,23.15,9.2,36.24t25.93,13.11q17,0,26.9-13t9.9-36.66Q936.69,142.84,901,142.85Z" transform="translate(-75.5 -74)"/><path d="M1037.32,88.21l-1.11,41.53a55.63,55.63,0,0,1,16.59-9.06,61.5,61.5,0,0,1,18.82-2.64,66.31,66.31,0,0,1,22.58,3.62A48.93,48.93,0,0,1,1111.34,132a46.27,46.27,0,0,1,11,16,53.27,53.27,0,0,1,3.91,20.77v56.6a21.53,21.53,0,0,0,.28,5c.55,6,1.39,8.92,2.5,8.92h2a9.19,9.19,0,0,0,2.78-.56,9.3,9.3,0,0,1,2.79-.56h2.79q14.22,0,14.22,12.27,0,12.54-17.29,12.54a88.58,88.58,0,0,1-10.31-.83l-10-1q-4.45-.42-7.52-.42c-1.87,0-3.68.05-5.44.14s-3.3.24-4.6.42a112.79,112.79,0,0,1-14.22,1.67,16.27,16.27,0,0,1-11.15-3.9,12.4,12.4,0,0,1-4.46-9.76,10.55,10.55,0,0,1,4-8.22,14.26,14.26,0,0,1,9.62-3.49,27.37,27.37,0,0,1,8.36,1.68,8.11,8.11,0,0,1,1.4.14,10.36,10.36,0,0,0,1.67.14q3.06,0,3.62-13.39v-4.74q0-3.35.28-7.8c0-1.49,0-3.35.14-5.58s.14-4.08.14-5.57V188.29q0-25.65-4.74-34.29-6.13-12-22.86-12-18.4,0-26.76,12.55-5.58,8.64-6.14,29.55c0,3.16,0,6.32-.14,9.48s-.13,6.32-.13,9.47v2.65a17,17,0,0,1-.28,3.21v16a30.23,30.23,0,0,0,.28,5.44q.83,9.48,3.34,9.47a12.13,12.13,0,0,0,1.95-.27c.93-.19,2.05-.37,3.35-.56a11.09,11.09,0,0,1,3.2-.7c1.21-.09,2.19-.14,2.93-.14q13.1,0,13.1,11.71,0,13.11-16.17,13.1a112.1,112.1,0,0,1-11.7-.83c-3.17-.37-6.14-.65-8.93-.84s-5.29-.28-7.52-.28q-4.19,0-12,.84-5.58.56-9.06.84c-2.33.18-3.95.27-4.88.27q-15.33,0-15.33-13.38,0-11.43,14.49-11.43a26.63,26.63,0,0,1,6.14.56h-.28a15.7,15.7,0,0,0,3.62.56h2q.56,0,.84-4.74,1.39-7.24,1.95-32.34,0-11.72.14-23.7t.14-23.7q0-38.75-1.67-49.34c-.56-4.46-1.4-6.87-2.51-7.25a3.7,3.7,0,0,1-1.81.42,17.79,17.79,0,0,0-2.65.42,11.51,11.51,0,0,1-3.63.56h-3.62q-13.38,0-13.38-12a11.32,11.32,0,0,1,4.46-9.2,16.65,16.65,0,0,1,10.87-3.63q2,0,9.48.84h-.28c1.67.19,3.35.33,5,.42s3.53.14,5.58.14c.37,0,1.25,0,2.64-.14s2.74-.23,4-.42c.92-.18,1.9-.32,2.92-.42s2-.14,2.93-.14q10.59,0,10.59,12.55Z" transform="translate(-75.5 -74)"/><path d="M1201.81,122.77q10.31,0,12,8.65Q1228.85,118,1251.71,118a58.07,58.07,0,0,1,29.27,7.8h-.28q14.5,8.37,19.24,19.79,4.18,9.76,4.18,24.82v63.28c.18,3,.84,4.84,2,5.58.93,0,2.14-.05,3.63-.14a26.91,26.91,0,0,0,3.62-.42c.93-.18,1.77-.32,2.51-.42a23.66,23.66,0,0,1,2.79-.14,13,13,0,0,1,8.92,3.49,10.69,10.69,0,0,1,3.9,8.22,11.75,11.75,0,0,1-4.46,9.34,16.28,16.28,0,0,1-10.87,3.76c-.93,0-2.37,0-4.32-.14a45.62,45.62,0,0,1-6-.69c-2.78-.37-5.81-.7-9.06-1s-6.09-.42-8.5-.42c-1.86,0-3.76.05-5.71.14s-3.68.24-5.16.42q-6.13.84-10,1.26c-2.6.27-4.09.41-4.46.41q-15,0-15-13.1,0-11.72,13.38-11.71a8.91,8.91,0,0,0,2.23.28,15.27,15.27,0,0,1,2.09.14,13.83,13.83,0,0,0,2.09.14c.93.19,1.67.33,2.23.42a9.13,9.13,0,0,0,1.4.14,4.73,4.73,0,0,0,1.11.28q2,0,2.23-10.6c0-2.23.09-4.5.28-6.83s.28-4.6.28-6.83l.28-15.89V179.37q0-12.56-1.4-18.68A22.17,22.17,0,0,0,1271,153a21.08,21.08,0,0,0-5.3-5.71v.28a29.48,29.48,0,0,0-17-5.58q-18.67,0-26.76,13.1-5.58,9.48-5.58,33.46v35.12q0,9.5.7,12.83c.46,2.23,1.26,3.34,2.37,3.34a14.55,14.55,0,0,0,1.67-.27c.93-.19,2-.37,3.07-.56a24.25,24.25,0,0,1,3.21-.84,22,22,0,0,1,3.76-.28q12.83,0,12.82,12.55T1228.85,263a49.28,49.28,0,0,1-5.44-.55c-2.69-.38-5.71-.74-9.06-1.12a82.58,82.58,0,0,0-12.26-.84c-1.68,0-3.68.1-6,.28s-5.06.47-8.22.84l-6.14.56a30.52,30.52,0,0,1-4.73.69c-1.49.1-2.42.14-2.79.14q-15.62,0-15.61-12.82,0-12,12.82-12a17.55,17.55,0,0,1,2.37.14c.65.1,1.35.24,2.09.42a33.17,33.17,0,0,0,7.53.84q3.35,0,3.62-11.43c0-4.84.09-9.71.28-14.64s.28-9.8.28-14.64V166.82l-.56-9.2a86.77,86.77,0,0,0-1.11-8.78c-.38-1.76-1-2.83-2-3.21a8,8,0,0,1-2.5.42,20.11,20.11,0,0,0-3.07.42c-1.12.19-2.14.33-3.07.42a26,26,0,0,1-2.78.14q-13.95,0-13.94-12.27t16.16-12.26a9.88,9.88,0,0,0,1.82-.14,2.92,2.92,0,0,1,1.81.41l9.2,1.12c.93,0,2,0,3.2-.14s2.38-.23,3.49-.42c1.49-.18,2.74-.32,3.76-.42S1200.32,122.77,1201.81,122.77Z" transform="translate(-75.5 -74)"/><path d="M1440.45,180.2V157.9l-.28-42.65q0-16.17-9.2-16.17a23.21,23.21,0,0,0-4.46.56,47.57,47.57,0,0,1-7.81.83,12.88,12.88,0,0,1-9.06-3.48,11.76,11.76,0,0,1-3.76-9.06q0-13.11,15.89-13.11h1.81a14,14,0,0,1,2.65.28l18.12,2q5.3.57,11,.84t12.13.28q7,0,29.55-.84l31.22-1.11H1528l14.21-.84a20.64,20.64,0,0,1,3.77-.28h4.6q18.95,0,19,16.45a58.47,58.47,0,0,1-.41,6.41q-.42,3.63-1,8.64t-1,8.65a55.32,55.32,0,0,0-.41,5.85c0,1.49,0,3,.14,4.46s.23,3.26.41,5.3.33,4.18.42,6.41.14,4.37.14,6.41q0,14.79-14.22,14.78-14.49,0-14.49-16.45v-4.88c0-1.95.09-4.22.28-6.83a13.17,13.17,0,0,1,.13-1.81,10.43,10.43,0,0,0,.14-1.53,41.09,41.09,0,0,0,.28-4.6v-3.49q0-12-5.29-14.22-8.1-3.62-36.25-3.62-22.58,0-25.37,3.34-1.66,2.23-1.67,22v19.79c0,3.16.46,5.16,1.4,6s3.34,1.25,7.24,1.25H1489q12.81,0,12.82-8.92a29.65,29.65,0,0,0-.28-3.76c-.19-1.4-.37-2.84-.56-4.32s-.32-2.93-.42-4.33-.13-2.55-.13-3.48q0-13.93,14.21-13.94,13.67,0,13.66,15.61v1.53a8.9,8.9,0,0,1-.27,2.1,9.14,9.14,0,0,1-.14,1.39,11.28,11.28,0,0,0-.14,2l-1.68,14.5q-.55,4.74-.83,8.08c-.19,2.23-.28,4.09-.28,5.58a190.85,190.85,0,0,0,2.51,27.32,80.34,80.34,0,0,1,.83,11.43q0,14.22-14.21,14.22-13.66,0-13.66-15.06v-3.62a44.33,44.33,0,0,1,.27-4.74c.19-1.67.33-3.16.42-4.46s.14-2.41.14-3.35c0-4.08-1-6.69-3.06-7.8-.94-.74-4-1.12-9.2-1.12h-8.37c-4.83,0-7.62.38-8.36,1.12-.56.56-.84,3.62-.84,9.2v31.78c0,7.07.6,11.8,1.81,14.22s3.58,3.62,7.11,3.62h2a23.62,23.62,0,0,0,3.35-.28c1.3,0,2.51,0,3.62-.14s2-.14,2.79-.14q17,0,17,12.83a11.65,11.65,0,0,1-4.18,9.2,14.85,14.85,0,0,1-10,3.62,45,45,0,0,1-6.13-.42l-7.25-1a99.74,99.74,0,0,0-12.41-1.53q-6.55-.42-13.52-.42a132,132,0,0,0-20.07,1.67l-9.2,1.39a6.27,6.27,0,0,0-2,.28h-2q-16.45,0-16.45-13.38,0-12.27,12.82-12.27a4.19,4.19,0,0,1,.84.14,5.46,5.46,0,0,0,1.39.14H1423a18.85,18.85,0,0,1,2.93.28,26.45,26.45,0,0,0,2.79.42,23.4,23.4,0,0,0,2.51.14c3.15,0,5.34-1.16,6.55-3.49s1.9-6.55,2.09-12.68Z" transform="translate(-75.5 -74)"/><path d="M1645.07,266.35q-29.83,0-47.67-20.35t-17.84-53.81q0-33.72,17.84-53.52Q1615.24,118,1645.91,118t48.79,20.07q17.57,19.8,17.56,53.25,0,34-18.12,54.08Q1676,266.35,1645.07,266.35Zm1.4-123.5q-16.74,0-26.07,12t-10.18,34.3v3.06q0,23.15,9.2,36.24t25.93,13.11q17,0,26.9-13t9.9-36.66Q1682.15,142.84,1646.47,142.85Z" transform="translate(-75.5 -74)"/><path d="M1792,118q15.33,0,25.93,6.13,2.5-7.8,12.26-7.81,13.11,0,13.11,12.27a4.69,4.69,0,0,1-.14,1.11,8.9,8.9,0,0,0-.14,2c0,.74,0,1.62-.14,2.64s-.14,2-.14,2.93a46.12,46.12,0,0,0-.84,5,44.44,44.44,0,0,0-.28,4.74,53.34,53.34,0,0,0,.84,8.64q.55,3.08.84,5.44a38.44,38.44,0,0,1,.27,4.32q0,13.94-13.1,13.94-12.82,0-13.38-12l-.28-8.92q-.29-6.41-7.67-11t-17.7-4.6q-10,0-17,5t-7,12.82a12.82,12.82,0,0,0,5.29,10.73q5.3,4.05,13.94,5.72l7.67,1.11c2.51.38,5.06.75,7.67,1.12q49.07,6.69,49.06,40.7,0,20.35-16.45,34-16.17,12.27-40.7,12.27a67.73,67.73,0,0,1-33.45-8.36q-1.41,10.59-13.39,10.59-14.2,0-14.21-14.5.55-4.19,1-6.69c.28-1.67.51-3.16.7-4.46s.32-2.65.42-4,.14-3.39.14-6a55.06,55.06,0,0,0-.42-6.56q-.42-3.48-1-6.55a33.74,33.74,0,0,1-.83-7.53q0-12.81,13.1-12.82,8.92,0,10.87,4.74,2,4.19,2.23,15.33.29,9.77,10.46,15.89t26.62,6.14q10.88,0,18-5.44a16.92,16.92,0,0,0,7.11-14.08q0-14.78-24.53-17.28a222,222,0,0,1-25.65-4.32,64.5,64.5,0,0,1-18.68-7.25A31,31,0,0,1,1741,181.32q-3.9-7.24-3.9-18.12a41.63,41.63,0,0,1,4-18.4,40.9,40.9,0,0,1,11.29-14.22,54.84,54.84,0,0,1,17.29-9.2A70.21,70.21,0,0,1,1792,118Z" transform="translate(-75.5 -74)"/><path d="M1941.69,204.74q.57-14.49,14.22-14.5t13.66,15.89a124.2,124.2,0,0,1-2.23,25.51q-2.23,10.46-6.13,16.87-11.16,16.73-36.52,16.72-11.71,0-20.21-3.9A32.55,32.55,0,0,1,1891,250.18q-7.53-11.43-7.53-35.41V151.49c0-1.3-.19-2-.56-2h-8.36a14.35,14.35,0,0,1-10.18-3.77,12.2,12.2,0,0,1-4-9.33,12.53,12.53,0,0,1,4-9.07,12.84,12.84,0,0,1,9.34-4H1884V94.9q0-14,14.77-13.94,13.93,0,13.94,13.94v28.15a.24.24,0,0,0,.28.28h28.71q14.5,0,14.5,12.83,0,13.38-15,13.38h-29.28a2.16,2.16,0,0,1,.84,2v65q0,24,13.66,24,14.78,0,14.78-18.68Z" transform="translate(-75.5 -74)"/><path d="M2109.52,180.48q0,6.42-.28,10a10.94,10.94,0,0,1-1.67,5.58,5.82,5.82,0,0,1-4,2.36,50,50,0,0,1-7.39.42h-83.91c-.75,0-1.12.1-1.12.28q0,18.69,10.87,30.39a34,34,0,0,0,44.61,6.41,25.3,25.3,0,0,0,10.87-14.22l2.51-7.52a15.67,15.67,0,0,1,4.88-6.69,12.42,12.42,0,0,1,7.94-2.51q14.51,0,14.5,13.94,0,19-19.51,33.45a68.61,68.61,0,0,1-42.1,13.94q-30.11,0-47.67-19.79-17.29-19.8-17.29-52.42,0-32.88,18.4-54.64Q2017.8,118,2047.91,118a64.8,64.8,0,0,1,24.81,4.46,59.22,59.22,0,0,1,19.52,13.1Q2109.52,153.72,2109.52,180.48Zm-30.39-6.69a29.69,29.69,0,0,0-9.2-21.74q-9.75-9.21-21.74-9.2-12.27,0-24,10-10.59,9.76-10.59,20.91Z" transform="translate(-75.5 -74)"/><path d="M2165.28,122.77q9.19,0,10.87,7.25,13.67-12,32.62-12a56.37,56.37,0,0,1,18.68,2.92,43,43,0,0,1,14.5,8.37,37.46,37.46,0,0,1,9.47,13,40.58,40.58,0,0,1,3.35,16.73q0,13.38-7,21.6t-18.68,8.23a19.83,19.83,0,0,1-13.52-4.74,14.94,14.94,0,0,1-5.44-11.71,13.72,13.72,0,0,1,4.6-10,14.66,14.66,0,0,1,10.46-4.46c.37,0,.32-.09-.14-.28l.7.28v-1.39q0-6.13-5.44-10.32a21.49,21.49,0,0,0-13.52-4.18q-17.57,0-23.42,16.17-3.9,11.16-3.9,32.9v30.38a34,34,0,0,0,.28,5.86q1.38,12.27,3.62,12.27c1.12,0,2.14-.05,3.07-.14s1.85-.23,2.78-.42a22.36,22.36,0,0,1,6.42-1.12q12.81,0,12.82,12,0,13.11-15.33,13.1h-.84q-2.24,0-5.43-.27t-7.39-.84c-5.4-.56-9.2-.84-11.43-.84q-5.3,0-9.2.14t-7,.42L2136.84,263q-15.33,0-15.33-13.1,0-11.72,14.5-11.71a16.23,16.23,0,0,0,2.37-.14,4.81,4.81,0,0,1,2.37.42l3.34.84h2.23a1.15,1.15,0,0,0,.84.28h.28q2.51,0,2.79-8.37,0-3.34.27-6.69t.28-6.69L2150,157.9q-.57-10.31-2.79-11.71c-.38,0-1.3.1-2.79.28a28.67,28.67,0,0,1-3.07.28h.56a28.55,28.55,0,0,1-7,.84q-13.11,0-13.1-12.27,0-12.82,15.61-12.82a12.61,12.61,0,0,0,3.35.41q2.77.15,5,.42c1.49.19,2.93.33,4.33.42s2.46.14,3.2.14h1.54a12.1,12.1,0,0,0,2.36-.28,2.9,2.9,0,0,0,1-.14,4.33,4.33,0,0,1,1.25-.14A30,30,0,0,1,2165.28,122.77Z" transform="translate(-75.5 -74)"/><path d="M822.94,456.2q0,13.38-5.85,22.58T797.85,494.4a48.7,48.7,0,0,1,10.32,5h-.28q24,13.95,24,40.71,0,26.49-20.91,42.37-19.51,15.35-53.53,15.34-5.58,0-13-.42t-16.31-1l-15.2-1q-6.27-.42-10.45-.42a94.27,94.27,0,0,0-13.1.83l-12.83,1.68H676a1.12,1.12,0,0,0-.55.14,1.32,1.32,0,0,1-.56.14h-2.79q-15.61-.29-15.61-13.39,0-12.26,12.82-12.26c.74,0,1.86.05,3.35.14a24.72,24.72,0,0,1,4.46.69h1.67a11.44,11.44,0,0,0,2.09.28h1.26q8.91,0,8.92-15.89V449.79q0-16.17-8.64-16.45a5.75,5.75,0,0,1-2.23.28,21,21,0,0,0-3.35.28h.28a46.45,46.45,0,0,1-7.81.84q-12.83,0-12.82-12.27,0-13.1,16.73-13.1h3.9l13.1,1.95a107.47,107.47,0,0,0,14.78.83q9.75,0,28.71-1.67h-.28q6.42-.56,13.25-.84t14.35-.27q29.55,0,45.72,12.26T822.94,456.2ZM720.35,467.63q0,11.72,1.4,15.34,2.5,1.95,10.59,1.95h15q42.93,0,42.94-27,0-24.54-34.57-24.54-26.49,0-31.78,3.07h.27q-3.9,2.5-3.9,14.77Zm0,84.2q0,15.33,3.63,18.12,2.78,1.95,10,2.65t19.8.69q45.44,0,45.44-33.73,0-30.66-43.49-30.67H733.45q-10.86,0-12.26,3.91-.84,2.51-.84,9.2Z" transform="translate(-75.5 -74)"/><path d="M974.6,597.55q-10.61,0-12-8.65-14.49,12-36.8,12-33.73,0-47.11-21.19a40.73,40.73,0,0,1-4.46-10,46.29,46.29,0,0,1-2-11.15Q872,555.17,872,549v-36q0-32.61-3.35-32.61a13.24,13.24,0,0,0-1.67.14c-.75.09-1.58.23-2.51.41s-2.28.38-4,.56-2.47.28-2.09.28q-13.67,0-13.66-12.55,0-12,15.89-12c.92,0,2.09.05,3.48.14s2.83.23,4.32.42,2.93.32,4.32.41,2.56.14,3.49.14c.56,0,1.58,0,3.06-.14a24.69,24.69,0,0,0,4.47-.69,17.16,17.16,0,0,1,2.23-.42,23.59,23.59,0,0,1,2.78-.14q12.82,0,12.83,13.66v5.57l-.28,17.57-.84,19.51v16.73a159,159,0,0,0,1,19.24,82,82,0,0,0,2.37,12.54q5.3,14.22,24.81,14.22A34,34,0,0,0,946,571.62a24.35,24.35,0,0,0,10.74-12q3.9-9.46,3.9-37.63V490.21c-.56-5.94-1.39-8.92-2.51-8.92a23.67,23.67,0,0,0-3.9.56h-3.9q-13.67,0-13.66-12,0-12.81,14.77-12.82c.93,0,2,0,3.35.14s2.69.23,4.18.42,2.88.32,4.18.41,2.23.14,2.79.14h2.37a25.66,25.66,0,0,0,3.48-.27c1.12-.19,2.28-.33,3.49-.42s2.27-.14,3.2-.14q12.56,0,12.55,12a34.8,34.8,0,0,1-.56,6.7v-.28q-.56,5-1,12.26t-.42,16.73v40.7q0,15.62.28,17,1.38,11.43,2.78,11.43c.37,0,1,0,2-.14s2-.23,3.06-.42c.93-.18,2.18-.37,3.77-.56s2.18-.27,1.81-.27q13.65,0,13.66,12.26,0,12.82-15.61,12.83h-2.65a15.33,15.33,0,0,1-2.93-.28,4.69,4.69,0,0,1-1.11-.14,3.56,3.56,0,0,0-.84-.14q-6.69-.84-7.53-.84a2.39,2.39,0,0,0-.7.14,2.84,2.84,0,0,1-1,.14,15.35,15.35,0,0,0-3.07.28h.28A27.38,27.38,0,0,1,974.6,597.55Z" transform="translate(-75.5 -74)"/><path d="M1064.64,457.32q9.21,0,10.88,7.25,13.65-12,32.62-12a56.27,56.27,0,0,1,18.67,2.92,43,43,0,0,1,14.5,8.37,37.36,37.36,0,0,1,9.48,13,40.77,40.77,0,0,1,3.34,16.73q0,13.38-7,21.61t-18.68,8.22a19.81,19.81,0,0,1-13.52-4.74,14.91,14.91,0,0,1-5.44-11.71,13.66,13.66,0,0,1,4.6-10,14.61,14.61,0,0,1,10.45-4.47c.37,0,.33-.09-.14-.27s-.23-.1.7.27v-1.39q0-6.14-5.43-10.31a21.55,21.55,0,0,0-13.53-4.19q-17.57,0-23.41,16.17-3.91,11.16-3.91,32.9V556a33.94,33.94,0,0,0,.28,5.85q1.39,12.27,3.63,12.27c1.11,0,2.13,0,3.06-.14a26.85,26.85,0,0,0,2.79-.42,22.19,22.19,0,0,1,6.41-1.11q12.83,0,12.83,12,0,13.11-15.34,13.11h-.83c-1.49,0-3.31-.1-5.44-.28s-4.6-.47-7.39-.84q-8.08-.84-11.43-.83-5.29,0-9.2.13t-7,.42l-15,1.4q-15.33,0-15.33-13.11,0-11.7,14.49-11.71a17.74,17.74,0,0,0,2.37-.13,4.66,4.66,0,0,1,2.37.41l3.35.84h2.23a1.1,1.1,0,0,0,.83.28h.28c1.68,0,2.6-2.79,2.79-8.36,0-2.23.09-4.47.28-6.7s.28-4.46.28-6.69l-.84-59.94q-.55-10.31-2.79-11.7c-.37,0-1.3.09-2.78.27a28.67,28.67,0,0,1-3.07.28h.56a28.55,28.55,0,0,1-7,.84q-13.11,0-13.11-12.27,0-12.81,15.62-12.82a11.9,11.9,0,0,0,3.34.42c1.86.09,3.53.23,5,.42s2.93.32,4.32.41,2.46.14,3.21.14h1.53a12.1,12.1,0,0,0,2.37-.28,2.94,2.94,0,0,0,1-.14,4.31,4.31,0,0,1,1.25-.13A29.18,29.18,0,0,1,1064.64,457.32Z" transform="translate(-75.5 -74)"/><path d="M1226.9,452.58c1.86,0,3.76.09,5.72.28a55.25,55.25,0,0,1,5.71.83q2.24-11.7,10.73-18.26t23.56-6.55q14.22,0,23.56,7.25t9.34,18.68a18.81,18.81,0,0,1-5.44,13.66A17.15,17.15,0,0,1,1287.4,474a15.38,15.38,0,0,1-10.46-4,12.42,12.42,0,0,1-4.6-9.62,14.36,14.36,0,0,1,.7-4.6,10,10,0,0,1,3.48-4.32,18.06,18.06,0,0,0-2.37-1,7.46,7.46,0,0,0-2.37-.42q-8.92,0-9.75,12.27a52.26,52.26,0,0,1,14.91,16.58A42.82,42.82,0,0,1,1282.1,500q0,19.8-15.33,33.18-14.79,13.11-37.08,13.1a77.83,77.83,0,0,1-16-1.67,69.92,69.92,0,0,1-16-5.58,24,24,0,0,0-5.3-1.39,4.3,4.3,0,0,0-3.48,2.09,8.42,8.42,0,0,0-1.54,5.16q0,10,23.14,10h3.49a12.27,12.27,0,0,0,2.37-.28h3.62q25.65,0,42.1,5,15.88,5,25.23,15.33a34.32,34.32,0,0,1,9.34,23.7,37,37,0,0,1-4.88,19,42.09,42.09,0,0,1-14.08,14.22,72,72,0,0,1-22.3,8.92,129,129,0,0,1-29.28,3.07q-32.61,0-51-11.43t-18.4-31.79q0-19.79,19.51-30.38-16.73-8.93-16.73-25.37a25.56,25.56,0,0,1,5.3-15.89A37.35,37.35,0,0,1,1179,517.81a27.33,27.33,0,0,1-4-9.48,50.35,50.35,0,0,1-1-10.31q0-19.23,15.33-32.9Q1204.32,452.58,1226.9,452.58ZM1228,579.7q-19.23,0-30.1,5.44T1187,599.5q0,9.19,10.6,14.36t28.71,5.15q19.25,0,30.25-5.29t11-14.22q0-9.19-10.45-14.5T1228,579.7Zm-.27-102.31a25.15,25.15,0,0,0-16.73,5.85,20.24,20.24,0,0,0-7.53,14.78v1.12q0,10.31,6.69,16.3t17.29,6q11.43,0,18.4-6a19.77,19.77,0,0,0,7-15.75,20.26,20.26,0,0,0-7.25-16Q1238.32,477.39,1227.74,477.39Z" transform="translate(-75.5 -74)"/><path d="M1435.71,515c0,4.27-.09,7.62-.28,10a11,11,0,0,1-1.67,5.58,5.86,5.86,0,0,1-4,2.37,50,50,0,0,1-7.39.42h-83.92c-.74,0-1.11.09-1.11.28q0,18.67,10.87,30.38a34,34,0,0,0,44.61,6.41q8.35-5.57,10.87-14.21l2.51-7.53a15.59,15.59,0,0,1,4.88-6.69,12.48,12.48,0,0,1,7.94-2.51q14.51,0,14.5,13.94,0,19-19.51,33.45a68.61,68.61,0,0,1-42.1,13.94q-30.11,0-47.67-19.79-17.29-19.8-17.29-52.41,0-32.9,18.4-54.65,18.68-21.45,48.79-21.46a65,65,0,0,1,24.81,4.46,59.22,59.22,0,0,1,19.52,13.1Q1435.71,488.28,1435.71,515Zm-30.39-6.7a29.69,29.69,0,0,0-9.2-21.74q-9.75-9.19-21.74-9.2-12.27,0-24,10-10.59,9.75-10.59,20.9Z" transform="translate(-75.5 -74)"/><path d="M1491.47,457.32q9.19,0,10.87,7.25,13.67-12,32.62-12a56.37,56.37,0,0,1,18.68,2.92,43.08,43.08,0,0,1,14.49,8.37,37.36,37.36,0,0,1,9.48,13,40.78,40.78,0,0,1,3.35,16.73q0,13.38-7,21.61t-18.68,8.22a19.83,19.83,0,0,1-13.52-4.74,14.94,14.94,0,0,1-5.44-11.71,13.69,13.69,0,0,1,4.6-10,14.61,14.61,0,0,1,10.46-4.47c.37,0,.32-.09-.14-.27l.69.27v-1.39q0-6.14-5.43-10.31a21.52,21.52,0,0,0-13.52-4.19q-17.57,0-23.42,16.17-3.91,11.16-3.9,32.9V556a35.56,35.56,0,0,0,.27,5.85q1.39,12.27,3.63,12.27c1.11,0,2.13,0,3.07-.14a27.07,27.07,0,0,0,2.78-.42,22.31,22.31,0,0,1,6.42-1.11q12.81,0,12.82,12,0,13.11-15.33,13.11h-.84c-1.49,0-3.3-.1-5.44-.28s-4.6-.47-7.38-.84c-5.4-.56-9.2-.83-11.43-.83-3.54,0-6.6,0-9.2.13s-4.93.24-7,.42l-15.06,1.4q-15.33,0-15.33-13.11,0-11.7,14.5-11.71a17.94,17.94,0,0,0,2.37-.13,4.64,4.64,0,0,1,2.36.41l3.35.84h2.23a1.11,1.11,0,0,0,.84.28h.28q2.5,0,2.78-8.36c0-2.23.09-4.47.28-6.7s.28-4.46.28-6.69l-.84-59.94q-.56-10.31-2.78-11.7-.57,0-2.79.27a28.67,28.67,0,0,1-3.07.28h.56a28.55,28.55,0,0,1-7,.84q-13.11,0-13.1-12.27,0-12.81,15.61-12.82a12,12,0,0,0,3.34.42c1.86.09,3.53.23,5,.42s2.93.32,4.32.41,2.47.14,3.21.14H1481a12.1,12.1,0,0,0,2.37-.28,2.94,2.94,0,0,0,1-.14,4.4,4.4,0,0,1,1.25-.13A29.21,29.21,0,0,1,1491.47,457.32Z" transform="translate(-75.5 -74)"/><path d="M1650.93,452.58q15.33,0,25.93,6.13,2.51-7.8,12.27-7.8,13.09,0,13.1,12.26a4.71,4.71,0,0,1-.14,1.12,9.4,9.4,0,0,0-.14,1.95c0,.74,0,1.63-.14,2.65s-.14,2-.14,2.92a46.47,46.47,0,0,0-.83,5,42.1,42.1,0,0,0-.28,4.74,54.36,54.36,0,0,0,.83,8.64q.55,3.07.84,5.44a38.61,38.61,0,0,1,.28,4.32q0,13.95-13.1,13.94-12.83,0-13.39-12l-.27-8.92q-.29-6.4-7.67-11t-17.7-4.6q-10,0-17,5t-7,12.82a12.84,12.84,0,0,0,5.3,10.74q5.29,4,13.94,5.71l7.66,1.12,7.67,1.11q49.07,6.69,49.07,40.7,0,20.35-16.45,34-16.17,12.25-40.71,12.26a67.78,67.78,0,0,1-33.45-8.36q-1.4,10.59-13.38,10.59-14.22,0-14.22-14.49.56-4.18,1-6.7c.27-1.67.51-3.15.69-4.46s.33-2.64.42-4,.14-3.39.14-6a54.77,54.77,0,0,0-.42-6.55c-.28-2.33-.6-4.51-1-6.56a33.14,33.14,0,0,1-.84-7.52q0-12.82,13.1-12.83,8.92,0,10.88,4.74,1.93,4.18,2.23,15.34.27,9.75,10.45,15.89t26.63,6.13q10.86,0,18-5.44a16.92,16.92,0,0,0,7.11-14.07q0-14.77-24.54-17.29A220.6,220.6,0,0,1,1630,535a63.87,63.87,0,0,1-18.67-7.25,31,31,0,0,1-11.43-11.85q-3.92-7.25-3.91-18.12a41.8,41.8,0,0,1,4-18.4,41.11,41.11,0,0,1,11.3-14.22,54.78,54.78,0,0,1,17.28-9.2A70.21,70.21,0,0,1,1650.93,452.58Z" transform="translate(-75.5 -74)"/></svg>